P2
# Este formato no es P2
3 3
255
5  7  9
11 13 15
17 19 21