P2
# Este formato no es P2
3 3
255
2  4  6
8  10 12
14 16 18